<svg width="263" height="39" viewBox="0 0 263 39" fill="none" xmlns="http://www.w3.org/2000/svg">
<path d="M21.4736 8.288C24.4176 8.288 25.8896 9.216 25.8896 11.072C25.8896 11.968 25.5856 12.664 24.9776 13.16C24.3696 13.64 23.4736 13.88 22.2896 13.88H17.0336V34.016C17.0336 36.944 15.7216 38.408 13.0976 38.408C10.4896 38.408 9.18563 36.944 9.18563 34.016V13.88H4.76963C3.34563 13.88 2.24963 13.64 1.48163 13.16C0.729625 12.664 0.353625 11.968 0.353625 11.072C0.353625 10.16 0.729625 9.472 1.48163 9.008C2.24963 8.528 3.34563 8.288 4.76963 8.288H21.4736ZM43.1764 32.624H45.3604C46.5444 32.624 47.3844 32.88 47.8804 33.392C48.3924 33.888 48.6484 34.528 48.6484 35.312C48.6484 36.08 48.3844 36.72 47.8564 37.232C47.3444 37.744 46.5124 38 45.3604 38H35.1124C33.8804 38 32.9924 37.744 32.4484 37.232C31.9044 36.72 31.6324 36.08 31.6324 35.312C31.6324 34.528 31.8804 33.888 32.3764 33.392C32.8724 32.88 33.6084 32.624 34.5844 32.624H36.2644V20.528H34.6324C33.6084 20.528 32.8244 20.288 32.2804 19.808C31.7364 19.312 31.4644 18.656 31.4644 17.84C31.4644 16.976 31.8404 16.312 32.5924 15.848C33.3444 15.384 34.4324 15.152 35.8564 15.152H38.0164C38.9604 15.152 39.8244 15.376 40.6084 15.824C41.3924 16.272 42.0004 16.888 42.4324 17.672L42.6004 18.464C43.6564 17.312 44.9204 16.384 46.3924 15.68C47.8804 14.96 49.4004 14.6 50.9524 14.6C52.1844 14.6 53.2724 14.872 54.2164 15.416C55.1764 15.944 55.6564 16.872 55.6564 18.2C55.6564 19.448 55.3284 20.408 54.6724 21.08C54.0164 21.752 53.1364 22.088 52.0324 22.088C51.3604 22.088 50.8004 22.04 50.3524 21.944C49.9044 21.832 49.4724 21.696 49.0564 21.536C48.7364 21.424 48.4084 21.336 48.0724 21.272C47.7524 21.208 47.4164 21.176 47.0644 21.176C46.3124 21.176 45.6404 21.392 45.0484 21.824C44.4724 22.256 44.0164 22.832 43.6804 23.552C43.3444 24.256 43.1764 25.04 43.1764 25.904V32.624ZM65.1671 14.912C67.7751 14.912 69.0791 16.384 69.0791 19.328V27.512C69.0791 29.272 69.3271 30.6 69.8231 31.496C70.3351 32.376 71.1751 32.816 72.3431 32.816C73.1431 32.816 73.8231 32.608 74.3831 32.192C74.9431 31.776 75.3751 31.208 75.6791 30.488C75.9991 29.768 76.1591 28.96 76.1591 28.064V19.328C76.1591 16.384 77.4711 14.912 80.0951 14.912C82.7031 14.912 84.0071 16.384 84.0071 19.328V34.016C84.0071 36.944 82.7031 38.408 80.0951 38.408C78.1911 38.408 76.9831 37.608 76.4711 36.008L76.3991 35.336C75.6151 36.28 74.6391 37.048 73.4711 37.64C72.3191 38.216 71.0151 38.504 69.5591 38.504C67.9271 38.504 66.4791 38.2 65.2151 37.592C63.9671 36.968 62.9831 35.936 62.2631 34.496C61.5591 33.056 61.2071 31.112 61.2071 28.664V19.328C61.2071 16.384 62.5271 14.912 65.1671 14.912ZM102.23 38.504C100.086 38.504 98.1019 38.048 96.2779 37.136C94.4539 36.208 92.9899 34.856 91.8859 33.08C90.7979 31.288 90.2539 29.104 90.2539 26.528C90.2539 24.592 90.5659 22.888 91.1899 21.416C91.8139 19.928 92.6779 18.68 93.7819 17.672C94.8859 16.664 96.1659 15.904 97.6219 15.392C99.0779 14.864 100.638 14.6 102.302 14.6C104.526 14.6 106.494 15.024 108.206 15.872C109.918 16.704 111.262 17.872 112.238 19.376C113.214 20.864 113.702 22.584 113.702 24.536C113.702 25.816 113.398 26.72 112.79 27.248C112.198 27.776 111.246 28.04 109.934 28.04H97.8619C98.0059 29.08 98.2939 29.96 98.7259 30.68C99.1739 31.4 99.7499 31.952 100.454 32.336C101.158 32.72 101.942 32.912 102.806 32.912C103.942 32.912 104.854 32.76 105.542 32.456C106.23 32.152 106.854 31.808 107.414 31.424C107.958 31.088 108.502 30.808 109.046 30.584C109.59 30.344 110.174 30.224 110.798 30.224C111.598 30.224 112.262 30.448 112.79 30.896C113.318 31.344 113.582 32 113.582 32.864C113.582 33.664 113.374 34.312 112.958 34.808C112.542 35.288 112.022 35.744 111.398 36.176C110.438 36.88 109.166 37.448 107.582 37.88C105.998 38.296 104.214 38.504 102.23 38.504ZM98.0539 23.84H106.766C106.59 22.608 106.134 21.624 105.398 20.888C104.678 20.136 103.702 19.76 102.47 19.76C101.782 19.76 101.142 19.92 100.55 20.24C99.9579 20.544 99.4459 21 99.0139 21.608C98.5979 22.2 98.2779 22.944 98.0539 23.84ZM170.067 8.288C173.011 8.288 174.483 9.216 174.483 11.072C174.483 11.968 174.179 12.664 173.571 13.16C172.963 13.64 172.067 13.88 170.883 13.88H165.627V34.016C165.627 36.944 164.315 38.408 161.691 38.408C159.083 38.408 157.779 36.944 157.779 34.016V13.88H153.363C151.939 13.88 150.843 13.64 150.075 13.16C149.323 12.664 148.947 11.968 148.947 11.072C148.947 10.16 149.323 9.472 150.075 9.008C150.843 8.528 151.939 8.288 153.363 8.288H170.067ZM184.258 32.408H188.122V20.72H185.77C184.33 20.72 183.234 20.48 182.482 20C181.746 19.52 181.378 18.832 181.378 17.936C181.378 17.024 181.746 16.336 182.482 15.872C183.234 15.392 184.33 15.152 185.77 15.152H191.482C194.426 15.152 195.898 16.624 195.898 19.568V32.408H199.234C200.578 32.408 201.586 32.656 202.258 33.152C202.93 33.632 203.266 34.32 203.266 35.216C203.266 36.112 202.93 36.8 202.258 37.28C201.586 37.76 200.578 38 199.234 38H184.258C182.946 38 181.946 37.76 181.258 37.28C180.586 36.8 180.25 36.112 180.25 35.216C180.25 34.32 180.586 33.632 181.258 33.152C181.946 32.656 182.946 32.408 184.258 32.408ZM186.586 6.008C186.586 5.048 186.818 4.176 187.282 3.392C187.746 2.608 188.37 1.984 189.154 1.52C189.954 1.056 190.834 0.823999 191.794 0.823999C192.77 0.823999 193.65 1.056 194.434 1.52C195.218 1.984 195.834 2.608 196.282 3.392C196.746 4.176 196.978 5.048 196.978 6.008C196.978 6.968 196.746 7.848 196.282 8.648C195.834 9.432 195.218 10.056 194.434 10.52C193.65 10.968 192.77 11.192 191.794 11.192C190.834 11.192 189.954 10.968 189.154 10.52C188.37 10.056 187.746 9.432 187.282 8.648C186.818 7.848 186.586 6.968 186.586 6.008ZM221.105 38.504C218.961 38.504 216.977 38.048 215.153 37.136C213.329 36.208 211.865 34.856 210.761 33.08C209.673 31.288 209.129 29.104 209.129 26.528C209.129 24.592 209.441 22.888 210.065 21.416C210.689 19.928 211.553 18.68 212.657 17.672C213.761 16.664 215.041 15.904 216.497 15.392C217.953 14.864 219.513 14.6 221.177 14.6C223.401 14.6 225.369 15.024 227.081 15.872C228.793 16.704 230.137 17.872 231.113 19.376C232.089 20.864 232.577 22.584 232.577 24.536C232.577 25.816 232.273 26.72 231.665 27.248C231.073 27.776 230.121 28.04 228.809 28.04H216.737C216.881 29.08 217.169 29.96 217.601 30.68C218.049 31.4 218.625 31.952 219.329 32.336C220.033 32.72 220.817 32.912 221.681 32.912C222.817 32.912 223.729 32.76 224.417 32.456C225.105 32.152 225.729 31.808 226.289 31.424C226.833 31.088 227.377 30.808 227.921 30.584C228.465 30.344 229.049 30.224 229.673 30.224C230.473 30.224 231.137 30.448 231.665 30.896C232.193 31.344 232.457 32 232.457 32.864C232.457 33.664 232.249 34.312 231.833 34.808C231.417 35.288 230.897 35.744 230.273 36.176C229.313 36.88 228.041 37.448 226.457 37.88C224.873 38.296 223.089 38.504 221.105 38.504ZM216.929 23.84H225.641C225.465 22.608 225.009 21.624 224.273 20.888C223.553 20.136 222.577 19.76 221.345 19.76C220.657 19.76 220.017 19.92 219.425 20.24C218.833 20.544 218.321 21 217.889 21.608C217.473 22.2 217.153 22.944 216.929 23.84ZM250.896 38.504C249.488 38.504 248.096 38.408 246.72 38.216C245.344 38.024 244.088 37.728 242.952 37.328C241.832 36.928 240.936 36.424 240.264 35.816C239.608 35.208 239.28 34.488 239.28 33.656C239.28 32.712 239.584 32 240.192 31.52C240.8 31.024 241.576 30.776 242.52 30.776C242.92 30.776 243.36 30.84 243.84 30.968C244.32 31.08 244.832 31.248 245.376 31.472C245.888 31.712 246.416 31.944 246.96 32.168C247.52 32.376 248.12 32.552 248.76 32.696C249.4 32.84 250.088 32.912 250.824 32.912C251.96 32.912 252.84 32.784 253.464 32.528C254.104 32.272 254.424 31.832 254.424 31.208C254.424 30.824 254.232 30.512 253.848 30.272C253.464 30.032 252.896 29.824 252.144 29.648C251.408 29.472 250.496 29.288 249.408 29.096C247.456 28.76 245.768 28.288 244.344 27.68C242.936 27.072 241.848 26.264 241.08 25.256C240.312 24.248 239.928 22.976 239.928 21.44C239.928 20.16 240.248 19.088 240.888 18.224C241.544 17.344 242.4 16.64 243.456 16.112C244.528 15.584 245.712 15.2 247.008 14.96C248.32 14.72 249.632 14.6 250.944 14.6C252.16 14.6 253.368 14.672 254.568 14.816C255.784 14.96 256.888 15.2 257.88 15.536C258.872 15.856 259.664 16.296 260.256 16.856C260.864 17.416 261.168 18.112 261.168 18.944C261.168 19.824 260.864 20.488 260.256 20.936C259.648 21.384 258.896 21.608 258 21.608C257.488 21.608 257.008 21.56 256.56 21.464C256.112 21.368 255.656 21.232 255.192 21.056C254.712 20.864 254.128 20.664 253.44 20.456C252.768 20.248 251.968 20.144 251.04 20.144C250.64 20.144 250.232 20.168 249.816 20.216C249.416 20.248 249.048 20.32 248.712 20.432C248.376 20.528 248.104 20.68 247.896 20.888C247.704 21.08 247.608 21.336 247.608 21.656C247.608 22.008 247.816 22.312 248.232 22.568C248.664 22.808 249.24 23.016 249.96 23.192C250.696 23.368 251.544 23.536 252.504 23.696C254.44 24.016 256.144 24.432 257.616 24.944C259.088 25.456 260.232 26.176 261.048 27.104C261.864 28.032 262.272 29.28 262.272 30.848C262.272 32.608 261.736 34.056 260.664 35.192C259.608 36.328 258.216 37.168 256.488 37.712C254.776 38.24 252.912 38.504 250.896 38.504Z" fill="white"/>
</svg>
